<?xml version="1.0" standalone="no"?>
<!DOCTYPE svg PUBLIC "-//W3C//DTD SVG 20010904//EN"
 "http://www.w3.org/TR/2001/REC-SVG-20010904/DTD/svg10.dtd">
<svg version="1.0" xmlns="http://www.w3.org/2000/svg"
 width="3806.000000pt" height="3806.000000pt" viewBox="0 0 3806.000000 3806.000000"
 preserveAspectRatio="xMidYMid meet">
<metadata>
Created by potrace 1.11, written by Peter Selinger 2001-2013
</metadata>
<g transform="translate(0.000000,3806.000000) scale(0.100000,-0.100000)"
fill="#000000" stroke="none">
<path d="M18717 30454 c-1 -1 -171 -5 -377 -9 -206 -4 -406 -9 -445 -10 -38
-2 -158 -6 -265 -10 -107 -4 -224 -8 -260 -10 -123 -6 -305 -15 -380 -20 -41
-2 -122 -7 -179 -10 -57 -3 -129 -7 -160 -10 -31 -2 -99 -7 -151 -10 -52 -3
-117 -7 -145 -10 -27 -2 -93 -7 -145 -10 -52 -3 -106 -8 -120 -10 -14 -2 -68
-6 -120 -10 -52 -4 -111 -8 -130 -10 -19 -2 -71 -6 -115 -10 -43 -3 -93 -8
-110 -10 -16 -2 -64 -7 -105 -10 -41 -3 -89 -8 -105 -10 -17 -2 -61 -6 -100
-10 -38 -3 -90 -8 -115 -11 -25 -2 -67 -7 -95 -10 -27 -3 -66 -7 -85 -9 -19
-2 -62 -7 -95 -10 -33 -3 -71 -8 -85 -10 -14 -2 -52 -6 -85 -10 -33 -3 -73 -8
-90 -10 -16 -2 -50 -6 -75 -9 -103 -11 -167 -18 -195 -22 -16 -2 -50 -6 -75
-9 -25 -3 -52 -8 -60 -10 -8 -2 -43 -7 -78 -10 -35 -4 -71 -8 -80 -10 -9 -1
-42 -6 -72 -9 -30 -4 -73 -9 -95 -12 -22 -3 -67 -9 -100 -14 -79 -12 -134 -20
-181 -26 -34 -4 -89 -12 -194 -29 -14 -2 -45 -7 -70 -10 -25 -3 -56 -8 -70
-10 -83 -14 -221 -35 -255 -40 -22 -3 -65 -10 -95 -15 -30 -5 -68 -12 -85 -14
-16 -3 -109 -18 -205 -35 -96 -17 -192 -33 -214 -37 -21 -3 -48 -8 -60 -10
-11 -2 -34 -7 -51 -9 -16 -3 -55 -10 -85 -16 -30 -6 -64 -12 -75 -14 -35 -5
-87 -15 -215 -40 -69 -13 -141 -27 -160 -30 -104 -18 -757 -153 -945 -195 -49
-11 -99 -22 -110 -24 -11 -2 -42 -10 -70 -16 -27 -6 -61 -14 -75 -16 -14 -3
-33 -7 -42 -10 -16 -5 -41 -11 -88 -20 -14 -3 -90 -21 -170 -40 -80 -19 -156
-37 -170 -40 -14 -3 -97 -23 -185 -45 -88 -22 -167 -42 -175 -44 -115 -26
-612 -155 -640 -165 -14 -5 -36 -12 -50 -14 -69 -13 -796 -221 -1195 -343
-383 -117 -380 -116 -380 -112 0 1 -10 -3 -23 -10 -13 -7 -65 -25 -115 -40
-127 -39 -632 -207 -862 -287 -104 -36 -208 -72 -230 -79 -325 -107 -1595
-596 -1960 -755 -22 -10 -143 -62 -270 -115 -216 -92 -446 -192 -710 -310 -53
-23 -417 -191 -510 -235 -49 -23 -121 -57 -160 -75 -368 -172 -1138 -556
-1440 -720 -44 -23 -118 -63 -165 -87 -144 -76 -393 -211 -420 -228 -8 -6 -22
-13 -30 -17 -53 -23 -255 -143 -302 -179 -123 -95 -241 -271 -282 -419 -119
-437 119 -879 549 -1018 158 -51 359 -48 520 8 61 21 94 38 260 130 132 74
151 84 375 205 340 183 648 342 1010 521 157 77 299 148 315 156 17 9 37 20
45 24 8 5 53 26 100 48 47 21 137 63 200 94 174 83 306 144 445 207 28 12 83
38 123 56 41 19 75 34 77 34 2 0 48 20 101 45 53 25 98 45 100 45 2 0 27 11
56 24 29 13 91 40 138 61 47 20 99 43 115 50 17 7 118 50 225 95 107 45 209
88 225 95 71 32 449 184 670 270 467 182 676 260 1070 400 88 31 167 59 175
62 8 3 20 7 25 9 6 2 215 73 465 157 417 141 1228 396 1340 423 8 2 78 22 155
44 77 23 178 52 225 65 132 36 423 116 440 121 8 2 31 8 50 13 177 47 238 63
255 66 11 3 54 14 95 25 41 11 149 38 240 61 91 22 172 42 180 45 18 5 51 12
445 103 171 40 353 81 405 92 52 11 147 32 210 46 63 13 122 26 130 28 18 3
93 18 100 20 3 0 21 4 40 8 19 4 44 9 55 11 11 3 58 12 105 21 72 14 168 33
255 51 11 2 31 6 45 9 14 2 41 7 60 10 19 3 67 12 105 20 39 8 84 16 100 19
17 3 39 8 50 10 11 2 40 7 65 11 25 4 54 9 65 11 36 8 719 123 765 129 38 5
126 19 260 40 50 8 306 44 350 50 25 3 56 8 70 10 14 2 45 7 70 10 25 3 77 10
115 15 92 12 140 19 195 25 25 3 56 7 70 10 14 2 54 7 90 11 36 3 72 7 80 9 8
2 44 6 80 10 36 3 76 8 90 10 14 2 50 6 80 10 30 3 71 8 90 10 62 7 179 19
295 31 39 3 78 8 88 10 9 1 56 6 105 9 48 4 98 8 112 10 14 2 54 6 90 10 36 3
85 8 110 10 50 5 152 13 245 20 33 3 85 7 115 10 64 5 153 12 265 20 44 3 107
7 140 10 33 2 105 7 160 10 55 4 125 8 155 10 30 2 109 7 175 10 66 3 156 8
200 10 157 9 444 20 795 32 486 15 1823 9 2365 -12 260 -10 396 -16 465 -20
70 -4 174 -10 365 -21 44 -2 116 -6 160 -9 44 -3 114 -8 155 -10 41 -3 103 -7
138 -10 34 -3 92 -7 130 -10 201 -15 391 -31 482 -40 25 -2 72 -6 105 -9 115
-10 190 -17 220 -21 17 -2 62 -6 100 -10 39 -3 84 -8 100 -10 17 -2 59 -7 95
-10 36 -3 76 -8 90 -10 14 -2 54 -7 90 -10 36 -3 99 -10 140 -15 41 -5 100
-12 130 -15 30 -3 62 -8 70 -10 8 -2 45 -7 82 -10 37 -3 77 -8 90 -10 13 -3
47 -7 76 -10 29 -3 67 -7 85 -10 28 -4 93 -12 223 -30 23 -3 59 -8 80 -11 22
-2 66 -9 99 -14 33 -5 83 -12 110 -15 28 -3 75 -10 105 -16 30 -5 75 -11 100
-15 25 -3 70 -10 100 -15 30 -5 73 -12 95 -15 22 -3 76 -11 120 -19 44 -8 100
-17 125 -20 25 -3 72 -11 105 -17 33 -6 74 -12 90 -14 17 -2 57 -9 90 -15 33
-6 71 -13 85 -15 14 -2 41 -7 60 -11 19 -3 44 -7 55 -9 32 -4 512 -93 595
-110 41 -9 86 -18 100 -20 26 -4 88 -16 105 -19 33 -7 125 -26 146 -30 13 -3
33 -7 44 -9 113 -23 209 -43 365 -77 102 -22 196 -43 209 -45 12 -3 51 -11 85
-19 33 -8 72 -16 86 -19 14 -3 75 -17 135 -31 61 -14 121 -28 135 -31 14 -3
51 -12 83 -20 32 -8 77 -19 100 -24 23 -5 79 -18 125 -29 45 -12 119 -30 165
-42 45 -11 100 -24 122 -29 22 -5 67 -16 100 -25 33 -9 130 -34 215 -56 147
-39 341 -91 590 -159 969 -266 2219 -677 3200 -1052 129 -50 253 -97 275 -105
22 -8 54 -20 70 -28 17 -7 163 -65 325 -130 162 -65 320 -129 350 -142 30 -14
71 -31 90 -38 71 -26 795 -341 955 -415 33 -15 112 -51 175 -80 63 -29 166
-76 228 -106 63 -30 115 -54 117 -54 6 0 390 -187 677 -329 359 -179 820 -416
963 -496 22 -12 76 -42 120 -65 106 -57 163 -88 265 -144 170 -95 292 -130
455 -129 97 0 122 3 215 25 105 25 260 111 353 197 266 243 334 683 155 1000
-93 166 -199 261 -433 386 -49 27 -103 56 -120 65 -42 23 -165 90 -255 137
-41 22 -104 56 -140 75 -349 187 -1075 550 -1505 754 -199 93 -318 148 -600
276 -121 54 -238 107 -260 117 -103 47 -652 282 -835 357 -113 47 -214 89
-225 94 -21 10 -383 153 -600 238 -183 71 -420 160 -630 237 -99 36 -209 77
-245 90 -303 111 -1115 386 -1345 455 -33 10 -116 36 -185 58 -69 22 -179 56
-245 76 -66 20 -133 40 -150 46 -75 23 -422 125 -535 156 -69 19 -138 39 -155
45 -35 11 -384 107 -435 119 -19 5 -114 29 -210 55 -167 44 -404 105 -425 109
-5 1 -39 10 -75 19 -87 23 -463 113 -575 138 -49 11 -126 28 -170 39 -44 10
-91 21 -105 24 -14 3 -77 17 -140 31 -63 14 -146 32 -185 40 -38 8 -124 26
-190 40 -66 14 -129 27 -140 29 -11 2 -65 13 -120 25 -55 11 -111 22 -125 25
-14 2 -71 14 -128 25 -56 11 -117 23 -135 26 -17 3 -39 8 -47 10 -8 2 -31 6
-50 9 -19 3 -46 8 -60 11 -14 2 -74 14 -135 25 -60 12 -119 23 -130 25 -11 2
-47 9 -80 14 -33 5 -179 30 -325 55 -146 24 -283 47 -305 51 -23 3 -52 7 -65
10 -23 4 -55 9 -140 21 -19 3 -42 7 -50 9 -8 3 -35 7 -60 10 -25 3 -72 10
-105 15 -33 5 -80 12 -105 15 -25 3 -56 7 -70 10 -32 6 -104 16 -205 30 -23 3
-50 7 -62 9 -12 3 -49 7 -82 11 -33 3 -68 7 -78 9 -10 2 -43 7 -73 11 -30 3
-66 8 -80 10 -14 2 -50 6 -80 10 -30 4 -66 8 -80 10 -14 2 -38 6 -55 9 -16 2
-61 7 -100 11 -38 4 -77 8 -85 10 -8 1 -46 6 -83 10 -37 3 -76 8 -85 10 -21 4
-124 15 -188 20 -27 3 -65 7 -84 9 -49 7 -125 16 -190 21 -30 2 -75 7 -100 9
-47 6 -98 11 -210 21 -36 3 -86 8 -112 11 -26 3 -74 7 -105 9 -32 2 -85 6
-118 9 -140 14 -164 16 -235 21 -41 3 -100 7 -130 10 -30 2 -95 7 -145 10 -49
3 -117 8 -150 10 -33 3 -100 7 -150 10 -49 3 -117 8 -150 10 -33 3 -112 7
-175 10 -63 3 -146 7 -185 10 -72 5 -237 12 -480 21 -77 2 -189 7 -250 9 -292
10 -1580 26 -1588 19z"/>
<path d="M25470 22149 c-19 -4 -51 -10 -70 -13 -92 -14 -248 -81 -324 -139
-53 -39 -175 -165 -203 -209 -32 -50 -32 -49 -107 -193 -32 -60 -75 -141 -96
-180 -20 -38 -65 -124 -100 -190 -35 -66 -80 -151 -100 -190 -20 -38 -61 -115
-90 -170 -29 -55 -70 -131 -90 -170 -21 -38 -88 -167 -150 -285 -62 -118 -126
-240 -142 -270 -17 -30 -56 -104 -88 -165 -106 -202 -152 -289 -201 -382 -27
-51 -72 -137 -100 -190 -29 -54 -64 -120 -79 -148 -15 -27 -62 -117 -105 -200
-43 -82 -85 -163 -95 -180 -10 -16 -55 -102 -100 -190 -46 -88 -86 -164 -90
-170 -4 -5 -47 -86 -95 -180 -48 -93 -95 -183 -105 -200 -9 -16 -50 -93 -90
-170 -40 -77 -85 -162 -100 -190 -32 -59 -102 -192 -213 -405 -44 -85 -83
-159 -88 -165 -4 -5 -41 -75 -82 -155 -41 -80 -83 -161 -94 -180 -11 -19 -58
-107 -104 -195 -46 -88 -97 -186 -114 -217 -16 -31 -54 -103 -84 -160 -29 -57
-66 -125 -81 -153 -15 -27 -58 -108 -95 -180 -37 -71 -85 -161 -105 -200 -21
-38 -61 -115 -90 -170 -29 -55 -69 -131 -90 -170 -20 -38 -65 -124 -100 -190
-34 -66 -80 -151 -100 -190 -52 -97 -117 -220 -185 -350 -59 -113 -116 -220
-190 -360 -24 -44 -68 -129 -100 -190 -32 -60 -78 -148 -103 -195 -49 -92
-104 -197 -190 -360 -30 -58 -71 -136 -92 -175 -21 -38 -61 -115 -90 -170 -29
-55 -69 -131 -90 -170 -20 -38 -63 -119 -95 -180 -71 -135 -144 -274 -200
-380 -23 -44 -68 -129 -100 -190 -32 -60 -75 -141 -95 -180 -21 -38 -60 -113
-87 -165 -28 -52 -74 -140 -103 -195 -83 -156 -88 -168 -116 -262 -31 -106
-39 -274 -18 -387 21 -109 82 -252 149 -345 37 -53 183 -185 244 -221 186
-110 374 -142 616 -105 85 13 262 97 343 163 113 91 173 169 267 347 32 61 77
146 100 190 43 81 117 223 195 370 23 44 65 123 92 175 28 52 69 131 93 175
40 76 98 186 208 395 27 52 69 131 92 175 23 44 66 125 95 180 29 55 71 134
93 175 73 138 134 254 187 355 29 55 72 136 95 180 46 87 120 228 210 400 32
61 61 115 65 120 4 6 44 82 90 170 80 154 130 251 210 400 21 39 68 129 106
200 37 72 82 157 100 190 17 33 55 105 84 160 29 55 69 131 90 170 20 38 63
120 95 180 94 179 167 317 289 548 24 45 92 174 151 287 59 113 124 237 145
275 21 39 64 120 96 180 32 61 84 160 116 220 32 61 74 142 94 180 19 39 47
90 60 115 14 25 55 101 91 170 36 69 86 163 111 210 24 47 67 128 95 180 27
52 69 131 92 175 23 44 68 130 100 190 32 61 75 142 95 180 21 39 62 117 93
175 83 160 135 258 297 565 26 50 71 135 100 190 29 55 69 132 90 170 21 39
63 120 95 180 32 61 72 137 90 170 18 33 59 112 92 175 34 63 89 169 124 235
35 66 79 150 99 187 19 36 59 113 89 170 30 57 66 126 81 153 195 363 223 429
244 568 66 434 -207 842 -633 948 -88 21 -240 31 -301 18z"/>
<path d="M12330 22125 c-404 -87 -678 -423 -678 -829 0 -219 -19 -176 604
-1396 211 -412 467 -916 481 -945 8 -16 18 -37 23 -46 11 -22 449 -881 717
-1409 323 -635 466 -916 600 -1180 141 -276 297 -584 595 -1170 89 -173 213
-418 278 -545 65 -126 193 -378 285 -560 92 -181 234 -460 315 -620 81 -159
216 -425 300 -590 84 -165 212 -417 285 -560 73 -143 203 -399 290 -570 87
-170 217 -427 290 -570 73 -143 206 -404 295 -580 89 -176 222 -437 295 -580
73 -143 201 -395 285 -560 84 -165 214 -421 290 -570 476 -934 439 -868 525
-963 128 -142 293 -229 510 -267 39 -7 192 -7 230 0 238 45 410 144 546 315
81 101 149 257 174 395 9 56 6 230 -5 280 -7 28 -14 60 -16 73 -10 49 -52 139
-209 447 -89 176 -229 451 -310 610 -81 160 -209 412 -285 560 -76 149 -215
423 -310 610 -95 187 -230 453 -300 590 -70 138 -197 387 -283 555 -85 168
-218 429 -295 580 -77 151 -208 410 -292 575 -84 165 -214 422 -290 570 -76
149 -215 423 -310 610 -95 187 -228 448 -295 580 -67 132 -196 384 -285 560
-89 176 -220 433 -290 570 -70 138 -203 399 -295 580 -92 182 -225 443 -295
580 -70 138 -201 394 -290 570 -89 176 -224 442 -300 590 -153 301 -352 692
-593 1165 -88 173 -219 432 -292 575 -73 143 -190 373 -260 510 -70 138 -131
257 -135 265 -5 8 -11 22 -14 30 -3 8 -48 96 -99 195 -51 99 -139 270 -195
381 -113 221 -144 270 -228 356 -113 116 -267 198 -432 233 -80 16 -257 17
-332 0z"/>
</g>
</svg>
