<svg xmlns="http://www.w3.org/2000/svg" viewBox="0 0 1902.69 1142.13">
  <defs>
    <style>
      .cls-1 {
        fill: #1e22aa;
      }
    </style>
  </defs>
  <title>icon-vAsset 1</title>
  <g id="Layer_2" data-name="Layer 2">
    <g id="Layer_1-2" data-name="Layer 1">
      <g>
        <path class="cls-1" d="M661.24,439.06a41.28,41.28,0,0,0-73.6,37.42l326.65,642.15a41.28,41.28,0,1,0,73.59-37.42Z"/>
        <path class="cls-1" d="M624.37,417.42a40.36,40.36,0,0,0-35.9,58.66l326.64,642.15a40.36,40.36,0,1,0,71.94-36.6L660.42,439.47a40.44,40.44,0,0,0-36-22.05m326.75,724.71a42.08,42.08,0,0,1-37.66-23.08L586.82,476.9a42.21,42.21,0,0,1,75.25-38.25L988.7,1080.81a42.21,42.21,0,0,1-37.58,61.32"/>
        <path class="cls-1" d="M1297.49,420.6a41.33,41.33,0,0,0-55.77,17.25L977.49,938.72a41.28,41.28,0,0,0,73,38.51l264.22-500.86a41.29,41.29,0,0,0-17.25-55.77"/>
        <path class="cls-1" d="M1278.31,416.77a40.51,40.51,0,0,0-35.8,21.51L978.29,939.14a40.37,40.37,0,1,0,71.41,37.66l264.22-500.86a40.4,40.4,0,0,0-16.87-54.52,40,40,0,0,0-18.74-4.65M1014,1000.17a42.18,42.18,0,0,1-37.27-61.88l264.22-500.86a42.19,42.19,0,1,1,74.63,39.36L1051.31,977.67a42.11,42.11,0,0,1-37.35,22.5"/>
        <path class="cls-1" d="M41.32,319.61A41.27,41.27,0,0,1,21.16,242.3C305,83.79,627.77,0,954.69,0c324.16,0,644.62,82.47,926.69,238.48a41.28,41.28,0,1,1-40,72.24C1571.55,161.46,1264.91,82.55,954.69,82.55,641.84,82.55,333,162.72,61.4,314.37a41,41,0,0,1-20.08,5.24"/>
      </g>
    </g>
  </g>
</svg>
