<svg xmlns="http://www.w3.org/2000/svg" viewBox="0 0 1000 225.2">
  <defs>
    <style>
      .cls-1 {
        fill: #231f20;
      }
    </style>
  </defs>
  <title>logoAsset 3</title>
  <g id="Layer_2" data-name="Layer 2">
    <g id="Layer_1-2" data-name="Layer 1">
      <path class="cls-1" d="M63.44,224.93a6.4,6.4,0,0,1-5.71-3.5L.7,109.31a6.41,6.41,0,1,1,11.42-5.81l57,112.12a6.4,6.4,0,0,1-2.81,8.61A6.29,6.29,0,0,1,63.44,224.93Z"/>
      <path class="cls-1" d="M161.93,225a6.41,6.41,0,0,1-6.41-6.41V106.29a6.41,6.41,0,1,1,12.81,0V218.55A6.4,6.4,0,0,1,161.93,225Z"/>
      <path class="cls-1" d="M307.41,225a6.41,6.41,0,0,1-6.41-6.41V106.29a6.41,6.41,0,1,1,12.81,0V218.55A6.41,6.41,0,0,1,307.41,225Z"/>
      <path class="cls-1" d="M400.89,225.2a62.66,62.66,0,1,1,62.67-62.66A62.72,62.72,0,0,1,400.89,225.2Zm0-112.51a49.85,49.85,0,1,0,49.85,49.85A49.9,49.9,0,0,0,400.89,112.69Z"/>
      <path class="cls-1" d="M570.62,225.2a6.42,6.42,0,0,1-5.31-2.81l-64.52-95.23v91.63a6.41,6.41,0,1,1-12.81,0V106.29a6.4,6.4,0,0,1,11.7-3.6l64.53,95.23V106.53a6.41,6.41,0,1,1,12.81,0V218.79a6.41,6.41,0,0,1-4.52,6.13A6.49,6.49,0,0,1,570.62,225.2Z"/>
      <path class="cls-1" d="M660.71,172.31H633.4a6.41,6.41,0,1,1,0-12.81h27.31a6.41,6.41,0,1,1,0,12.81Z"/>
      <path class="cls-1" d="M820.56,225a6.41,6.41,0,0,1-6.41-6.41V106.29a6.41,6.41,0,0,1,6.41-6.41h45.72a35.75,35.75,0,0,1,35.53,35.89c0,20.15-15.94,36.54-35.53,36.54H843a6.41,6.41,0,1,1,0-12.81h23.3c12.32,0,22.72-10.86,22.72-23.73a22.93,22.93,0,0,0-22.72-23.08H827V218.55A6.41,6.41,0,0,1,820.56,225Z"/>
      <path class="cls-1" d="M669.43,225.2H611a6.41,6.41,0,0,1-6.41-6.41V106.53a6.41,6.41,0,0,1,6.41-6.41h62.54a6.41,6.41,0,1,1,0,12.81H617.38v99.46h52a6.41,6.41,0,1,1,0,12.81Z"/>
      <path class="cls-1" d="M765.5,172.31H738.19a6.41,6.41,0,1,1,0-12.81H765.5a6.41,6.41,0,0,1,0,12.81Z"/>
      <path class="cls-1" d="M778.31,225.2H715.77a6.41,6.41,0,0,1-6.41-6.41V106.53a6.41,6.41,0,0,1,6.41-6.41h62.54a6.41,6.41,0,1,1,0,12.81H722.17v99.46h56.14a6.41,6.41,0,1,1,0,12.81Z"/>
      <path class="cls-1" d="M234.76,224c-18.74,0-37.71-11.46-37.71-33.38a6.41,6.41,0,0,1,12.81,0c0,14.13,12.91,20.57,24.9,20.57s24.9-6.44,24.9-20.57c0-12.38-8.11-15.95-26.63-21.13l-.36-.1c-16.25-4.64-36.47-10.41-36.47-34,0-16.73,13.51-34.51,38.56-34.51s38.57,17.78,38.57,34.51a6.41,6.41,0,1,1-12.81,0c0-10.78-8.85-21.7-25.76-21.7S209,124.55,209,135.33c0,13.26,10.33,16.88,27.18,21.69l.33.09c16,4.48,36,10.07,36,33.46C272.48,212.49,253.5,224,234.76,224Z"/>
      <path class="cls-1" d="M961.43,224c-18.74,0-37.72-11.46-37.72-33.38a6.41,6.41,0,0,1,12.81,0c0,14.13,12.91,20.57,24.91,20.57s24.9-6.44,24.9-20.57c0-12.38-8.11-15.94-26.63-21.13l-.36-.1c-16.25-4.64-36.48-10.41-36.48-34,0-16.73,13.52-34.51,38.57-34.51S1000,118.6,1000,135.33a6.41,6.41,0,1,1-12.81,0c0-10.78-8.85-21.7-25.76-21.7s-25.76,10.92-25.76,21.7c0,13.26,10.34,16.88,27.19,21.69l.33.09c16,4.48,35.95,10.07,35.95,33.46C999.14,212.49,980.17,224,961.43,224Z"/>
      <path class="cls-1" d="M895.41,225a6.39,6.39,0,0,1-5.08-2.5l-40.45-52.65A6.4,6.4,0,1,1,860,162l40.45,52.64a6.4,6.4,0,0,1-1.18,9A6.33,6.33,0,0,1,895.41,225Z"/>
      <path class="cls-1" d="M74.42,200.15a6.28,6.28,0,0,1-3-.75,6.4,6.4,0,0,1-2.68-8.65l46.13-87.45a6.41,6.41,0,0,1,11.34,6L80.09,196.73A6.42,6.42,0,0,1,74.42,200.15Z"/>
      <path class="cls-1" d="M781.51,63.21a6.49,6.49,0,0,1-2.23-.4,805,805,0,0,0-558.56,0,6.41,6.41,0,1,1-4.46-12,817.81,817.81,0,0,1,567.48,0,6.4,6.4,0,0,1-2.23,12.41Z"/>
    </g>
  </g>
</svg>
