<svg xmlns="http://www.w3.org/2000/svg" viewBox="0 0 1000.1 387.93">
  <defs>
    <style>
      .cls-1 {
        fill: #1e22aa;
      }

      .cls-2 {
        fill: #daab28;
      }
    </style>
  </defs>
  <title>icon-vAsset 2</title>
  <g id="Layer_2" data-name="Layer 2">
    <g id="Layer_1-2" data-name="Layer 1">
      <g>
        <g>
          <path class="cls-1" d="M63.54,224.92a6.4,6.4,0,0,1-5.71-3.5L.8,109.3A6.41,6.41,0,1,1,12,103.11l.19.38,57,112.12a6.4,6.4,0,0,1-2.81,8.61h0A6.24,6.24,0,0,1,63.54,224.92Z"/>
          <path class="cls-1" d="M162,225a6.41,6.41,0,0,1-6.41-6.41h0V106.28a6.41,6.41,0,0,1,12.81-.51V218.54a6.41,6.41,0,0,1-6.35,6.45Z"/>
          <path class="cls-1" d="M307.51,225a6.41,6.41,0,0,1-6.41-6.41h0V106.28a6.41,6.41,0,0,1,12.81-.51V218.54a6.41,6.41,0,0,1-6.37,6.45Z"/>
          <path class="cls-1" d="M401,225.19a62.66,62.66,0,1,1,62.67-62.66A62.66,62.66,0,0,1,401,225.19Zm0-112.51a49.85,49.85,0,1,0,49.85,49.85A49.85,49.85,0,0,0,401,112.68Z"/>
          <path class="cls-1" d="M570.72,225.19a6.4,6.4,0,0,1-5.31-2.81l-64.52-95.23v91.63a6.41,6.41,0,0,1-12.81.51,4.34,4.34,0,0,1,0-.51V106.28a6.4,6.4,0,0,1,11.7-3.6l64.53,95.23V106.52a6.41,6.41,0,1,1,12.81-.51V218.78a6.42,6.42,0,0,1-4.52,6.13A6.69,6.69,0,0,1,570.72,225.19Z"/>
          <path class="cls-1" d="M660.81,172.3H633.5a6.41,6.41,0,1,1-.51-12.81,4.34,4.34,0,0,1,.51,0h27.31a6.41,6.41,0,1,1,.5,12.81Z"/>
          <path class="cls-1" d="M820.66,225a6.41,6.41,0,0,1-6.41-6.41V106.28a6.41,6.41,0,0,1,6.41-6.41h45.72a35.76,35.76,0,0,1,35.53,35.89c0,20.15-15.94,36.54-35.53,36.54H843.1a6.41,6.41,0,0,1-.51-12.81,4.34,4.34,0,0,1,.51,0h23.3c12.32,0,22.72-10.86,22.72-23.73a22.94,22.94,0,0,0-22.72-23.08H827.1V218.54a6.41,6.41,0,0,1-6.37,6.45Z"/>
          <path class="cls-1" d="M669.53,225.19H611.1a6.41,6.41,0,0,1-6.41-6.41V106.52a6.41,6.41,0,0,1,6.41-6.41h62.54a6.41,6.41,0,1,1,.5,12.81,4.17,4.17,0,0,1-.5,0H617.48v99.46h52a6.41,6.41,0,1,1,.5,12.81h-.45Z"/>
          <path class="cls-1" d="M765.6,172.3H738.29a6.41,6.41,0,1,1-.51-12.81,4.34,4.34,0,0,1,.51,0H765.6a6.41,6.41,0,0,1,0,12.81Z"/>
          <path class="cls-1" d="M778.41,225.19H715.87a6.41,6.41,0,0,1-6.41-6.41V106.52a6.41,6.41,0,0,1,6.41-6.41h62.54a6.41,6.41,0,1,1,.5,12.81,4.17,4.17,0,0,1-.5,0H722.27v99.46h56.14a6.41,6.41,0,1,1,.5,12.81Z"/>
          <path class="cls-1" d="M234.86,224c-18.74,0-37.71-11.46-37.71-33.38a6.41,6.41,0,0,1,12.81,0c0,14.13,12.91,20.57,24.9,20.57s24.9-6.44,24.9-20.57c0-12.38-8.11-16-26.63-21.13l-.36-.1c-16.25-4.64-36.47-10.41-36.47-34,0-16.73,13.51-34.51,38.56-34.51s38.57,17.78,38.57,34.51a6.41,6.41,0,1,1-12.81.51,4.34,4.34,0,0,1,0-.51c0-10.78-8.85-21.7-25.76-21.7s-25.76,10.86-25.76,21.64c0,13.26,10.33,16.88,27.18,21.69l.33.09c16,4.48,36,10.07,36,33.46C272.58,212.48,253.6,224,234.86,224Z"/>
          <path class="cls-1" d="M961.53,224c-18.74,0-37.72-11.46-37.72-33.38a6.41,6.41,0,0,1,12.81,0c0,14.13,12.91,20.57,24.91,20.57s24.9-6.44,24.9-20.57c0-12.38-8.11-15.94-26.63-21.13l-.36-.1C943.19,164.74,923,159,923,135.38c0-16.73,13.52-34.51,38.57-34.51s38.57,17.72,38.57,34.45a6.41,6.41,0,1,1-12.81.51,4.34,4.34,0,0,1,0-.51c0-10.78-8.85-21.7-25.76-21.7s-25.76,10.92-25.76,21.7c0,13.26,10.34,16.88,27.19,21.69l.33.09c16,4.48,36,10.07,36,33.46C999.24,212.48,980.27,224,961.53,224Z"/>
          <path class="cls-1" d="M895.51,225a6.39,6.39,0,0,1-5.08-2.5L850,169.84A6.4,6.4,0,1,1,860.1,162h0l40.45,52.64a6.41,6.41,0,0,1-1.15,9l0,0A6.3,6.3,0,0,1,895.51,225Z"/>
          <path class="cls-1" d="M74.52,200.14a6.27,6.27,0,0,1-3-.75,6.4,6.4,0,0,1-2.69-8.64h0L115,103.29a6.41,6.41,0,1,1,11.34,6h0L80.19,196.72A6.43,6.43,0,0,1,74.52,200.14Z"/>
          <path class="cls-1" d="M781.61,63.2a6.51,6.51,0,0,1-2.23-.4,805,805,0,0,0-558.56,0A6.41,6.41,0,0,1,215.72,51c.21-.09.42-.17.64-.24a817.84,817.84,0,0,1,567.48,0,6.4,6.4,0,0,1-2.23,12.41Z"/>
        </g>
        <g>
          <path class="cls-2" d="M344.77,371.57a12.22,12.22,0,0,1-5.16,2.17,34.39,34.39,0,0,1-6.65.61,21.87,21.87,0,0,1-8-1.46,17.45,17.45,0,0,1-6.52-4.45,21.36,21.36,0,0,1-4.41-7.63,33.36,33.36,0,0,1-1.63-11,31.36,31.36,0,0,1,1.8-11.3,21.48,21.48,0,0,1,4.75-7.61,18.43,18.43,0,0,1,6.62-4.31,21.44,21.44,0,0,1,7.47-1.36,40,40,0,0,1,6.65.45,21.5,21.5,0,0,1,4.41,1.18l-1.35,5q-3.27-1.64-9.3-1.63a15.52,15.52,0,0,0-5.5,1,12.47,12.47,0,0,0-4.86,3.33,16.89,16.89,0,0,0-3.43,6,28.38,28.38,0,0,0-1.29,9.17,27.17,27.17,0,0,0,1.22,8.55,17.64,17.64,0,0,0,3.37,6.12,13.62,13.62,0,0,0,5,3.66,15.85,15.85,0,0,0,6.28,1.23,21,21,0,0,0,5.33-.61,14.48,14.48,0,0,0,3.83-1.57Z"/>
          <path class="cls-2" d="M348.3,356.56c0-5.74,1.28-10.15,3.84-13.2s6.24-4.58,11-4.58A16.17,16.17,0,0,1,369.8,340a12.17,12.17,0,0,1,4.65,3.6,15.61,15.61,0,0,1,2.71,5.63,28.15,28.15,0,0,1,.88,7.3q0,8.63-3.83,13.21t-11,4.58a16.12,16.12,0,0,1-6.62-1.26,12.05,12.05,0,0,1-4.65-3.59,15.58,15.58,0,0,1-2.71-5.64A28.08,28.08,0,0,1,348.3,356.56Zm5.64,0a23.64,23.64,0,0,0,.51,5,12.91,12.91,0,0,0,1.6,4.14,8.45,8.45,0,0,0,2.85,2.85,7.93,7.93,0,0,0,4.27,1.09q9.24.07,9.24-13a23.93,23.93,0,0,0-.51-5,12.82,12.82,0,0,0-1.6-4.14,7.9,7.9,0,0,0-7.13-3.87Q353.94,343.46,353.94,356.56Z"/>
          <path class="cls-2" d="M406.49,373.54V354.32a40.36,40.36,0,0,0-.24-4.72,10.14,10.14,0,0,0-.91-3.36,4.55,4.55,0,0,0-1.94-2,6.79,6.79,0,0,0-3.29-.68,7.35,7.35,0,0,0-5.19,1.9,10,10,0,0,0-2.89,4.75v23.36H386.6v-34h3.8l1,4.14h.27a15.94,15.94,0,0,1,4.25-3.57,12.54,12.54,0,0,1,6.28-1.38,10.1,10.1,0,0,1,5.32,1.25,8.17,8.17,0,0,1,3.23,4.38,10.94,10.94,0,0,1,4.31-4.14,12.76,12.76,0,0,1,6.21-1.49,15.7,15.7,0,0,1,4.83.64,6.71,6.71,0,0,1,3.25,2.27,10.42,10.42,0,0,1,1.87,4.42,36,36,0,0,1,.58,7.06v20.37h-5.43V353.1a32.68,32.68,0,0,0-.24-4.25,7.86,7.86,0,0,0-.95-3,4.39,4.39,0,0,0-2-1.77,8.06,8.06,0,0,0-3.29-.57,7.15,7.15,0,0,0-5.3,1.9,11,11,0,0,0-2.72,5.43v22.68Z"/>
          <path class="cls-2" d="M441.73,329.27a3.77,3.77,0,0,1,1-2.68,3.52,3.52,0,0,1,2.69-1.12,3.84,3.84,0,0,1,2.78,1.12,3.59,3.59,0,0,1,1.15,2.68,3.29,3.29,0,0,1-1.15,2.58,4.05,4.05,0,0,1-2.78,1,3.7,3.7,0,0,1-2.69-1A3.44,3.44,0,0,1,441.73,329.27Zm1.15,10.32h5.44v34h-5.44Z"/>
          <path class="cls-2" d="M481.72,373.54V354.19q0-5.29-1.53-8t-5.6-2.68a9,9,0,0,0-5.94,1.93,10.28,10.28,0,0,0-3.29,4.86v23.22h-5.44v-34h3.81l1,4.14H465a12.2,12.2,0,0,1,4.38-3.57,14.42,14.42,0,0,1,6.55-1.38,16.8,16.8,0,0,1,4.89.64,7.29,7.29,0,0,1,3.49,2.27,10.92,10.92,0,0,1,2.11,4.38,28.6,28.6,0,0,1,.71,7v20.51Z"/>
          <path class="cls-2" d="M523.07,375.1q0,6.58-3.5,9.71t-10.35,3.12a33.69,33.69,0,0,1-6.55-.51,19.21,19.21,0,0,1-4.25-1.33l1.43-4.61c1,.4,2.19.79,3.46,1.16a18.67,18.67,0,0,0,5,.54,17.49,17.49,0,0,0,4.65-.51,6,6,0,0,0,2.88-1.7,6.4,6.4,0,0,0,1.5-3.05,21.34,21.34,0,0,0,.4-4.45v-3.26h-.27a9.07,9.07,0,0,1-3.46,3,12.36,12.36,0,0,1-5.5,1q-6.86,0-10.08-4.27t-3.23-13.31q0-8.7,4.14-13.21T511.53,339a30.78,30.78,0,0,1,6.62.62,37.91,37.91,0,0,1,4.92,1.42Zm-13.65-5.57a7.9,7.9,0,0,0,5.43-1.73,9.87,9.87,0,0,0,2.79-5.4V345a16.21,16.21,0,0,0-6.93-1.29,9,9,0,0,0-7.26,3.12q-2.65,3.13-2.65,9.78a27.26,27.26,0,0,0,.47,5.23,12.77,12.77,0,0,0,1.5,4.07,7.45,7.45,0,0,0,2.64,2.65A7.81,7.81,0,0,0,509.42,369.53Z"/>
          <path class="cls-2" d="M573.65,361.45a6.51,6.51,0,0,0-1.7-4.65,16.65,16.65,0,0,0-4.24-3.19,55.83,55.83,0,0,0-5.53-2.62,29.27,29.27,0,0,1-5.54-2.95,15.52,15.52,0,0,1-4.24-4.27,11.51,11.51,0,0,1-1.7-6.49,11,11,0,0,1,3.87-8.83q3.87-3.26,11-3.26a42.51,42.51,0,0,1,7.54.62,20.06,20.06,0,0,1,5.29,1.56l-1.69,5a22.79,22.79,0,0,0-4.59-1.47,30.11,30.11,0,0,0-6.82-.7q-4.49,0-6.72,2a6.32,6.32,0,0,0-.55,9.13,17.55,17.55,0,0,0,4.25,3.16q2.55,1.39,5.53,2.75a33.82,33.82,0,0,1,5.53,3.16,16.58,16.58,0,0,1,4.25,4.31,10.9,10.9,0,0,1,1.7,6.25,13.45,13.45,0,0,1-1.09,5.49,11.61,11.61,0,0,1-3.19,4.21,14.76,14.76,0,0,1-5.09,2.72,22.55,22.55,0,0,1-6.79,1,37.71,37.71,0,0,1-8.42-.78,22.6,22.6,0,0,1-5.16-1.73l1.9-5a21.34,21.34,0,0,0,4.62,1.69,26.24,26.24,0,0,0,6.85.83,18.81,18.81,0,0,0,4.21-.45,9.43,9.43,0,0,0,3.4-1.42A7.29,7.29,0,0,0,572.8,365,7,7,0,0,0,573.65,361.45Z"/>
          <path class="cls-2" d="M585.8,356.56c0-5.74,1.28-10.15,3.84-13.2s6.24-4.58,11-4.58a16.09,16.09,0,0,1,6.62,1.25,12,12,0,0,1,4.65,3.6,15.63,15.63,0,0,1,2.72,5.63,28.15,28.15,0,0,1,.88,7.3q0,8.63-3.83,13.21t-11,4.58a16.12,16.12,0,0,1-6.62-1.26,11.91,11.91,0,0,1-4.65-3.59,15.58,15.58,0,0,1-2.71-5.64A28.08,28.08,0,0,1,585.8,356.56Zm5.64,0a23.64,23.64,0,0,0,.51,5,13.14,13.14,0,0,0,1.59,4.14,8.57,8.57,0,0,0,2.86,2.85,7.93,7.93,0,0,0,4.27,1.09q9.24.07,9.24-13a23.93,23.93,0,0,0-.51-5,12.82,12.82,0,0,0-1.6-4.14,7.9,7.9,0,0,0-7.13-3.87Q591.44,343.46,591.44,356.56Z"/>
          <path class="cls-2" d="M622.2,356.56c0-5.74,1.27-10.15,3.83-13.2s6.24-4.58,11-4.58a16.14,16.14,0,0,1,6.63,1.25,12.1,12.1,0,0,1,4.65,3.6,15.61,15.61,0,0,1,2.71,5.63,28.13,28.13,0,0,1,.89,7.3c0,5.75-1.29,10.15-3.84,13.21s-6.24,4.58-11,4.58a16,16,0,0,1-6.61-1.26,11.91,11.91,0,0,1-4.65-3.59,15.59,15.59,0,0,1-2.72-5.64A28.09,28.09,0,0,1,622.2,356.56Zm5.63,0a23.64,23.64,0,0,0,.51,5,12.91,12.91,0,0,0,1.6,4.14,8.45,8.45,0,0,0,2.85,2.85,7.93,7.93,0,0,0,4.27,1.09q9.24.07,9.24-13a23.93,23.93,0,0,0-.51-5,12.82,12.82,0,0,0-1.6-4.14,7.9,7.9,0,0,0-7.13-3.87Q627.84,343.46,627.83,356.56Z"/>
          <path class="cls-2" d="M682.28,373.54V354.19c0-3.53-.5-6.19-1.52-8s-2.89-2.68-5.6-2.68a9.05,9.05,0,0,0-5.95,1.93,10.36,10.36,0,0,0-3.29,4.86v23.22h-5.43v-34h3.8l1,4.14h.27a12.38,12.38,0,0,1,4.38-3.57,14.45,14.45,0,0,1,6.55-1.38,16.71,16.71,0,0,1,4.89.64,7.32,7.32,0,0,1,3.5,2.27,10.79,10.79,0,0,1,2.1,4.38,28.05,28.05,0,0,1,.72,7v20.51Z"/>
        </g>
      </g>
    </g>
  </g>
</svg>
